<?xml version="1.0" encoding="utf-8"?>
<svg width="41.302002px" height="41.302002px" viewBox="0 0 41.302002 41.302002" version="1.1" xmlns:xlink="http://www.w3.org/1999/xlink" xmlns="http://www.w3.org/2000/svg">
  <defs>
    <filter filterUnits="userSpaceOnUse" color-interpolation-filters="sRGB" id="filter_1">
      <feFlood flood-opacity="0" result="BackgroundImageFix" />
      <feColorMatrix in="SourceAlpha" type="matrix" values="0 0 0 0 0 0 0 0 0 0 0 0 0 0 0 0 0 0 128 0" />
      <feOffset dx="0" dy="4" />
      <feGaussianBlur stdDeviation="2" />
      <feColorMatrix type="matrix" values="0 0 0 0 0 0 0 0 0 0 0 0 0 0 0 0 0 0 0.2509804 0" />
      <feBlend mode="normal" in2="BackgroundImageFix" result="effect0_dropShadow" />
      <feBlend mode="normal" in="SourceGraphic" in2="effect0_dropShadow" result="shape" />
    </filter>
    <path d="M29.302 0L29.302 0L29.302 29.302L0 29.302L0 0L29.302 0Z" id="path_1" />
    <clipPath id="clip_1">
      <use xlink:href="#path_1" clip-rule="evenodd" fill-rule="evenodd" />
    </clipPath>
  </defs>
  <g filter="url(#filter_1)">
    <g id="Group">
      <g id="coffee-beans (1)">
        <path d="M29.302 0L29.302 0L29.302 29.302L0 29.302L0 0L29.302 0Z" id="coffee-beans-(1)" fill="none" stroke="none" />
        <g id="Group" transform="translate(-2.7873635E-05 0.57068574)" clip-path="url(#clip_1)">
          <path d="M23.0248 8.16723C25.7422 4.52139 25.3735 1.41412 25.0151 0.0790129C25.0109 0.0785693 25.0069 0.0770166 25.003 0.0761293C21.8859 -0.530758 18.6621 2.55714 17.8023 6.97245C17.0451 10.8621 18.3749 14.4822 20.8322 15.706C20.5046 14.1725 20.5365 11.5075 23.0248 8.16723L23.0248 8.16723ZM25.9836 0.400646C26.1454 1.2499 26.2341 2.44142 25.9582 3.85794C25.6811 5.28288 25.0348 6.934 23.7271 8.6896C21.0722 12.2516 21.4461 14.9024 21.8269 16.0523C21.8487 16.0568 21.869 16.0624 21.8891 16.0668C25.0065 16.6737 28.2299 13.5863 29.0896 9.17057C29.8552 5.24118 28.4892 1.58647 25.9836 0.400646L25.9836 0.400646ZM7.58465 8.67452C12.1138 9.07142 14.564 7.12573 15.512 6.1195C15.5103 6.11551 15.5092 6.11099 15.5079 6.10737C14.387 3.13645 10.0663 2.01532 5.85745 3.60337C2.15076 5.00206 -0.231913 8.03525 0.017926 10.7691C1.15059 9.68482 3.43514 8.31155 7.58465 8.67452L7.58465 8.67452ZM9.9169 14.3627C13.6625 12.9499 16.0541 9.86804 15.7471 7.11242C15.1096 7.69587 14.1423 8.3974 12.7918 8.90713C11.434 9.41938 9.68968 9.73739 7.50894 9.5464C3.08342 9.15837 1.02379 10.8694 0.245288 11.7975C0.253199 11.8182 0.258744 11.8384 0.265917 11.8578C1.38705 14.8295 5.70787 15.9511 9.9169 14.3627L9.9169 14.3627ZM5.38845 25.9797C4.03449 23.5914 4.95554 19.8461 7.75693 17.0444C10.9384 13.8635 15.337 13.1052 17.5827 15.3507C17.5851 15.3535 17.5879 15.3567 17.5913 15.3597C17.1418 16.6676 15.7102 19.4496 11.42 20.9539C7.48942 22.3324 5.97353 24.5248 5.38845 25.9797L5.38845 25.9797ZM16.2605 19.0199C15.2344 20.0469 13.776 21.0546 11.7102 21.7796C7.51766 23.2496 6.34633 25.6568 6.01945 26.8224C6.03527 26.8383 6.04806 26.8548 6.06292 26.8694C8.30844 29.1151 12.7076 28.3567 15.8882 25.1758C18.7188 22.3452 19.6292 18.5518 18.2142 16.1676C17.8736 16.9617 17.2813 17.9991 16.2605 19.0199L16.2605 19.0199Z" id="Vector" fill="#FFFFFF" fill-rule="evenodd" stroke="none" />
        </g>
      </g>
    </g>
  </g>
</svg>